<svg width="27" height="40" viewBox="0 0 27 40" fill="none" xmlns="http://www.w3.org/2000/svg">
<path fill-rule="evenodd" clip-rule="evenodd" d="M6.18571 26.5344L7.87429 22.313C7.95022 22.1231 8.13408 21.9987 8.33853 21.9987H18.6615C18.866 21.9987 19.0498 22.1231 19.1257 22.313L20.8143 26.5344C20.9169 26.7908 21.2079 26.9155 21.4643 26.813L25.5243 25.1889C25.7851 25.0846 25.9089 24.7859 25.7982 24.5277L17 3.99867C15.7121 1.18251 14.8685 0.107023 13.0386 0.000756014C13.0132 -0.000716216 12.9869 -2.8813e-05 12.9616 0.00273583C10.9086 0.227588 9.99384 1.51411 9.00001 3.99867L1.17509 24.5391C1.07794 24.7941 1.20324 25.08 1.45664 25.1813L5.53578 26.813C5.79217 26.9155 6.08315 26.7908 6.18571 26.5344ZM16.7098 16.9987H9.7775C9.64099 16.9987 9.54459 16.8649 9.58776 16.7354L12.8228 7.0302C12.8823 6.85188 13.1326 6.8466 13.1995 7.02224L16.8967 16.7275C16.9466 16.8584 16.8499 16.9987 16.7098 16.9987ZM0 35.4987V39.4987C0 39.7748 0.223858 39.9987 0.5 39.9987H26.5C26.7761 39.9987 27 39.7748 27 39.4987V35.4987C27 35.2225 26.7761 34.9987 26.5 34.9987H0.5C0.223857 34.9987 0 35.2225 0 35.4987Z" fill="#F03226"/>
</svg>
