<svg width="26" height="40" viewBox="0 0 26 40" fill="none" xmlns="http://www.w3.org/2000/svg">
<path d="M0.375 39.4985V35.4985C0.375 35.2223 0.598858 34.9985 0.875 34.9985H25.1875C25.4636 34.9985 25.6875 35.2223 25.6875 35.4985V39.4985C25.6875 39.7746 25.4636 39.9985 25.1875 39.9985H0.875C0.598858 39.9985 0.375 39.7746 0.375 39.4985Z" fill="white"/>
<path fill-rule="evenodd" clip-rule="evenodd" d="M7.75336 22.3229L6.18358 26.509C6.08356 26.7757 5.78122 26.9051 5.5192 26.7933L1.74551 25.1832C1.50227 25.0794 1.38191 24.8042 1.47086 24.5552L8.81253 3.99848C9.74345 1.51603 10.6003 0.229588 12.5216 0.0031266C12.5485 -4.32341e-05 12.5766 -0.000824018 12.6036 0.000881176C14.3157 0.108907 15.1063 1.18503 16.3125 3.99848L24.5675 24.5443C24.6689 24.7967 24.55 25.0838 24.2998 25.1906L20.5434 26.7933C20.2813 26.9051 19.979 26.7757 19.879 26.509L18.3092 22.3229C18.236 22.1278 18.0494 21.9985 17.841 21.9985H8.22153C8.01311 21.9985 7.82655 22.1278 7.75336 22.3229ZM9.55332 16.9985H16.0287C16.167 16.9985 16.2636 16.8615 16.2171 16.7312L12.7635 7.06127C12.699 6.88049 12.4415 6.88566 12.3843 7.06888L9.36242 16.7388C9.32217 16.8676 9.41839 16.9985 9.55332 16.9985Z" fill="white"/>
</svg>
