<svg xmlns="http://www.w3.org/2000/svg" width="20" height="20"><rect id="backgroundrect" width="100%" height="100%" x="0" y="0" fill="none" stroke="none"/><g class="currentLayer" style=""><title>Layer 1</title><path d="M12.81 4.36l-1.77 1.78a4 4 0 0 0-4.9 4.9l-2.76 2.75C2.06 12.79.96 11.49.2 10a11 11 0 0 1 12.6-5.64zm3.8 1.85c1.33 1 2.43 2.3 3.2 3.79a11 11 0 0 1-12.62 5.64l1.77-1.78a4 4 0 0 0 4.9-4.9l2.76-2.75zm-.25-3.99l1.42 1.42L3.64 17.78l-1.42-1.42L16.36 2.22z" id="svg_1" class="selected" fill="#ffffff" fill-opacity="1"/></g></svg>