<svg width="16" height="24" viewBox="0 0 16 24" fill="none" xmlns="http://www.w3.org/2000/svg">
<path d="M8 0C3.67 0 0 3.056 0 7V10H6V7C6 6.853 6.09 6.638 6.438 6.406C6.785 6.176 7.352 6 8 6C8.652 6 9.217 6.177 9.563 6.406C9.908 6.636 10 6.836 10 7C10 7.58 9.81 7.98 9.437 8.438C9.064 8.896 8.482 9.366 7.844 9.906C6.567 10.986 5 12.496 5 15V16H11V15C11 14.66 11.124 14.42 11.5 14.03C11.876 13.642 12.496 13.18 13.156 12.625C14.476 11.515 16 9.815 16 7C16 3.09 12.336 0 8 0ZM8 2C11.396 2 14 4.365 14 7C14 9.145 13.024 10.1 11.844 11.094C11.254 11.59 10.624 12.074 10.062 12.656C9.715 13.016 9.447 13.484 9.25 14H7.312C7.627 12.99 8.234 12.217 9.156 11.437C9.768 10.92 10.436 10.381 11 9.687C11.564 8.994 12 8.081 12 7C12 6.04 11.428 5.24 10.687 4.75C9.948 4.26 9.006 4 8 4C6.99 4 6.05 4.258 5.312 4.75C4.575 5.242 4 6.042 4 7V8H2V7C2 4.316 4.597 2 8 2ZM5 18V24H11V18H5ZM7 20H9V22H7V20Z" fill="#FFD707"/>
</svg>
